<svg t="1696086626322" class="icon" viewBox="0 0 1024 1024" version="1.1" xmlns="http://www.w3.org/2000/svg" p-id="6612" width="200" height="200"><path d="M512 512m-512 0a512 512 0 1 0 1024 0 512 512 0 1 0-1024 0Z" fill="#28A5C6" p-id="6613"></path><path d="M275.2 190.4c0-3.2-3.2-6.4-8-7.2l-15.2-2.4c-4-0.8-8.8-4.8-8.8-8.8l-2.4-15.2c-0.8-4-4-8-7.2-8s-6.4 3.2-7.2 8l-2.4 15.2c-0.8 4-4.8 8.8-8.8 8.8l-15.2 2.4c-4 0.8-8 4-8 7.2s3.2 6.4 8 7.2l15.2 2.4c4 0.8 8.8 4.8 8.8 8.8l2.4 15.2c0.8 4 4 8 7.2 8s6.4-3.2 7.2-8l2.4-16.8c0.8-4 4.8-8 8.8-8.8l14.4-0.8c5.6-1.6 8.8-4 8.8-7.2zM823.2 174.4c0-3.2-3.2-6.4-8-7.2l-15.2-2.4c-4-0.8-8.8-4.8-8.8-8.8l-2.4-15.2c-0.8-4-4-8-7.2-8s-6.4 3.2-7.2 8l-2.4 15.2c-0.8 4-4.8 8.8-8.8 8.8l-15.2 2.4c-4 0.8-8 4-8 7.2s3.2 6.4 8 7.2l15.2 2.4c4 0.8 8.8 4.8 8.8 8.8l2.4 15.2c0.8 4 4 8 7.2 8s6.4-3.2 7.2-8l2.4-16.8c0.8-4 4.8-8 8.8-8.8l14.4-0.8c5.6-1.6 8.8-4 8.8-7.2z" fill="#FFFFFF" opacity=".5" p-id="6614"></path><path d="M218.4 340c0-7.2-15.2-12-33.6-12H76.8c-8 0-12.8 2.4-12.8 9.6V440c0 17.6 8.8 32 16 32s16-14.4 16-32v-56c0-17.6 8.8-32 28-32h60.8c18.4 0 33.6-4.8 33.6-12z" fill="#EAEAEA" p-id="6615"></path><path d="M80 480c-11.2 0-24-10.4-24-24V348.8C56 328 72.8 312 95.2 312h107.2c13.6 0 21.6 8 21.6 20.8v1.6c0 14.4-9.6 25.6-21.6 25.6H112.8c-4 0-8.8 2.4-8.8 6.4V456c0 13.6-12.8 24-24 24z m15.2-152c-11.2 0-23.2 7.2-23.2 20.8V456c0 4 4.8 8 8 8s8-4 8-8V366.4c0-12.8 11.2-22.4 24.8-22.4h89.6c4 0 5.6-5.6 5.6-9.6v-1.6c0-3.2 0-4.8-5.6-4.8H95.2z" fill="#233E49" p-id="6616"></path><path d="M872 352c0 17.6-14.4 32-32 32H192c-17.6 0-32-14.4-32-32v-24c0-17.6 14.4-32 32-32h648c17.6 0 32 14.4 32 32v24z" fill="#324D5B" p-id="6617"></path><path d="M840 392H192c-22.4 0-40-17.6-40-40v-24c0-22.4 17.6-40 40-40h648c22.4 0 40 17.6 40 40v24c0 22.4-17.6 40-40 40zM192 304c-13.6 0-24 10.4-24 24v24c0 13.6 10.4 24 24 24h648c13.6 0 24-10.4 24-24v-24c0-13.6-10.4-24-24-24H192z" fill="#233E49" p-id="6618"></path><path d="M693.6 588c0 17.6-13.6 32-31.2 32H362.4c-17.6 0-32-14.4-32-32V199.2c0-17.6 14.4-32 32-32H656c17.6 0 32 14.4 32.8 32l4.8 388.8z" fill="#EAEAEA" p-id="6619"></path><path d="M664 628H360c-22.4 0-40-17.6-40-40V199.2c0-22.4 17.6-39.2 40-39.2h304c22.4 0 40 16.8 40 39.2v388.8c0 22.4-17.6 40-40 40zM360 175.2c-13.6 0-24 10.4-24 24v388.8c0 13.6 10.4 24 24 24h304c13.6 0 24-10.4 24-24V199.2c0-13.6-10.4-24-24-24H360z" fill="#233E49" p-id="6620"></path><path d="M648 208H472c-4.8 0-8-3.2-8-8s3.2-8 8-8h176c4.8 0 8 3.2 8 8s-3.2 8-8 8z" fill="#FFFFFF" p-id="6621"></path><path d="M496 264H384c-4.8 0-8-3.2-8-8s4-8 8-8h112c4.8 0 8 3.2 8 8s-4 8-8 8zM640 264H528.8c-4.8 0-8-3.2-8-8s4-8 8-8H640c4.8 0 8 3.2 8 8s-4 8-8 8zM504 304H384c-4.8 0-8-3.2-8-8s4-8 8-8h120c4.8 0 8 3.2 8 8s-4 8-8 8zM648 304H535.2c-4 0-8-3.2-8-8s3.2-8 8-8H648c4 0 8 3.2 8 8s-3.2 8-8 8z" fill="#ADADAD" p-id="6622"></path><path d="M288 776.8c14.4 0 24 14.4 24 32v19.2c0 17.6-9.6 32-24 32s-24-14.4-24-32v-19.2c0-17.6 9.6-32 24-32z" fill="#AD5114" p-id="6623"></path><path d="M288 868c-18.4 0-32-16.8-32-40v-19.2c0-23.2 13.6-40 32-40s32 16.8 32 40v19.2c0 23.2-13.6 40-32 40z m0-83.2c-8.8 0-16 10.4-16 24v19.2c0 13.6 7.2 24 16 24s16-10.4 16-24v-19.2c0-13.6-7.2-24-16-24z" fill="#233E49" p-id="6624"></path><path d="M736 776.8c14.4 0 24 14.4 24 32v19.2c0 17.6-9.6 32-24 32s-24-14.4-24-32v-19.2c0-17.6 9.6-32 24-32z" fill="#AD5114" p-id="6625"></path><path d="M736 868c-18.4 0-32-16.8-32-40v-19.2c0-23.2 13.6-40 32-40s32 16.8 32 40v19.2c0 23.2-13.6 40-32 40z m0-83.2c-8.8 0-16 10.4-16 24v19.2c0 13.6 7.2 24 16 24s16-10.4 16-24v-19.2c0-13.6-7.2-24-16-24z" fill="#233E49" p-id="6626"></path><path d="M872 784.8c1.6 16.8-12 31.2-29.6 31.2H189.6c-17.6 0-30.4-14.4-29.6-31.2l20.8-266.4c1.6-16.8 16.8-30.4 34.4-30.4h602.4c17.6 0 32.8 13.6 34.4 30.4l20 266.4z" fill="#FBD000" p-id="6627"></path><path d="M843.2 824H180.8c-10.4 0-20.8-4-27.2-12-7.2-8-10.4-18.4-9.6-28.8l27.2-272.8c2.4-21.6 20.8-38.4 43.2-38.4h594.4c22.4 0 40.8 16.8 43.2 38.4l27.2 272.8c0.8 10.4-2.4 21.6-9.6 28.8-6.4 8-16 12-26.4 12zM214.4 488c-13.6 0-25.6 10.4-27.2 24L160 784.8c-0.8 6.4 1.6 12 5.6 16.8 4 4 9.6 6.4 16 6.4h661.6c6.4 0 12-2.4 16-6.4 4-4.8 5.6-10.4 5.6-16.8L836.8 512c-1.6-13.6-13.6-24-27.2-24H214.4z" fill="#233E49" p-id="6628"></path><path d="M828 744.8c1.6 17.6-11.2 31.2-28.8 31.2H221.6c-17.6 0-30.4-14.4-28.8-31.2l16.8-190.4c1.6-17.6 17.6-33.6 35.2-33.6H776c17.6 0 33.6 16 35.2 33.6l16.8 190.4z" fill="#415E6D" p-id="6629"></path><path d="M809.6 784H214.4c-8.8 0-16.8-3.2-22.4-9.6-5.6-6.4-8.8-14.4-8-22.4l18.4-206.4c1.6-17.6 17.6-32.8 34.4-32.8h550.4c16.8 0 32.8 15.2 34.4 32.8L840 752c0.8 8.8-1.6 16.8-7.2 22.4-6.4 6.4-14.4 9.6-23.2 9.6zM236.8 528c-8.8 0-17.6 8.8-18.4 18.4L200 752.8c0 4 0.8 8 3.2 10.4 2.4 3.2 6.4 4 10.4 4h596c4 0 8-1.6 10.4-4 2.4-2.4 4-6.4 3.2-10.4l-18.4-206.4c-0.8-9.6-9.6-18.4-18.4-18.4H236.8z" fill="#233E49" p-id="6630"></path><path d="M303.2 576.8m-23.2 0a23.2 23.2 0 1 0 46.4 0 23.2 23.2 0 1 0-46.4 0Z" fill="#FFFFFF" p-id="6631"></path><path d="M304 608c-17.6 0-32-14.4-32-32s14.4-32 32-32 32 14.4 32 32-14.4 32-32 32z m0-48c-8.8 0-16 7.2-16 16s7.2 16 16 16 16-7.2 16-16-7.2-16-16-16z" fill="#233E49" p-id="6632"></path><path d="M384 576.8m-23.2 0a23.2 23.2 0 1 0 46.4 0 23.2 23.2 0 1 0-46.4 0Z" fill="#FFFFFF" p-id="6633"></path><path d="M384 608.8c-17.6 0-32-14.4-32-32s14.4-32 32-32 32 14.4 32 32-14.4 32-32 32z m0-48c-8.8 0-16 7.2-16 16s7.2 16 16 16 16-7.2 16-16-7.2-16-16-16z" fill="#233E49" p-id="6634"></path><path d="M465.6 576.8m-23.2 0a23.2 23.2 0 1 0 46.4 0 23.2 23.2 0 1 0-46.4 0Z" fill="#FFFFFF" p-id="6635"></path><path d="M464 608c-17.6 0-32-14.4-32-32s14.4-32 32-32 32 14.4 32 32-14.4 32-32 32z m0-48c-8.8 0-16 7.2-16 16s7.2 16 16 16 16-7.2 16-16-7.2-16-16-16z" fill="#233E49" p-id="6636"></path><path d="M546.4 576.8m-23.2 0a23.2 23.2 0 1 0 46.4 0 23.2 23.2 0 1 0-46.4 0Z" fill="#FFFFFF" p-id="6637"></path><path d="M544 608c-17.6 0-32-14.4-32-32s14.4-32 32-32 32 14.4 32 32-14.4 32-32 32z m0-48c-8.8 0-16 7.2-16 16s7.2 16 16 16 16-7.2 16-16-7.2-16-16-16z" fill="#233E49" p-id="6638"></path><path d="M627.2 576.8m-23.2 0a23.2 23.2 0 1 0 46.4 0 23.2 23.2 0 1 0-46.4 0Z" fill="#FFFFFF" p-id="6639"></path><path d="M624 608c-17.6 0-32-14.4-32-32s14.4-32 32-32 32 14.4 32 32-14.4 32-32 32z m0-48c-8.8 0-16 7.2-16 16s7.2 16 16 16 16-7.2 16-16-7.2-16-16-16z" fill="#233E49" p-id="6640"></path><path d="M344 648m-24 0a24 24 0 1 0 48 0 24 24 0 1 0-48 0Z" fill="#FFFFFF" p-id="6641"></path><path d="M344 680c-17.6 0-32-14.4-32-32s14.4-32 32-32 32 14.4 32 32-14.4 32-32 32z m0-47.2c-8.8 0-15.2 7.2-15.2 15.2s7.2 15.2 15.2 15.2c8.8 0 15.2-7.2 15.2-15.2s-6.4-15.2-15.2-15.2z" fill="#233E49" p-id="6642"></path><path d="M708 576.8m-23.2 0a23.2 23.2 0 1 0 46.4 0 23.2 23.2 0 1 0-46.4 0Z" fill="#FFFFFF" p-id="6643"></path><path d="M704 608c-17.6 0-32-14.4-32-32s14.4-32 32-32 32 14.4 32 32-14.4 32-32 32z m0-48c-8.8 0-16 7.2-16 16s7.2 16 16 16 16-7.2 16-16-7.2-16-16-16z" fill="#233E49" p-id="6644"></path><path d="M648 726.4c0 8.8-4.8 17.6-16 17.6H391.2c-11.2 0-23.2-8.8-23.2-17.6V720c0-8.8 12.8-16 23.2-16H632c11.2 0 16 7.2 16 16v6.4z" fill="#FFFFFF" p-id="6645"></path><path d="M632 752H391.2c-14.4 0-31.2-11.2-31.2-25.6V720c0-14.4 16.8-24 31.2-24H632c14.4 0 24 9.6 24 24v7.2c0 12-8 24.8-24 24.8z m-240.8-40c-8 0-15.2 5.6-15.2 8v7.2c0 3.2 7.2 9.6 15.2 9.6H632c7.2 0 8-6.4 8-9.6V720c0-7.2-4.8-8-8-8H391.2z" fill="#233E49" p-id="6646"></path><path d="M832 456c0 17.6-14.4 32-32 32H224c-17.6 0-32-14.4-32-32v-72c0-17.6 14.4-32 32-32h576c17.6 0 32 14.4 32 32v72z" fill="#FBD000" p-id="6647"></path><path d="M784 496H240c-31.2 0-56-24.8-56-56v-40c0-31.2 24.8-56 56-56h544c31.2 0 56 24.8 56 56v40c0 31.2-24.8 56-56 56zM240 360c-22.4 0-40 17.6-40 40v40c0 22.4 17.6 40 40 40h544c22.4 0 40-17.6 40-40v-40c0-22.4-17.6-40-40-40H240z" fill="#233E49" p-id="6648"></path><path d="M388.8 360c14.4 48 65.6 99.2 126.4 99.2C576 459.2 628 408 641.6 360" fill="#324D5B" p-id="6649"></path><path d="M515.2 464c-64.8 0-119.2-52-134.4-102.4-1.6-4 0.8-8.8 5.6-9.6 4-1.6 8.8 0.8 9.6 5.6 12.8 44 62.4 91.2 119.2 91.2 56.8 0 105.6-47.2 119.2-91.2 1.6-4 5.6-6.4 9.6-5.6 4 1.6 6.4 5.6 5.6 9.6C634.4 412 580 464 515.2 464z" fill="#233E49" p-id="6650"></path><path d="M800 450.4c-4.8 0-8-3.2-8-8v-30.4c0-16-7.2-20-18.4-20H676.8c-4.8 0-8-3.2-8-8s4-8 8-8h96.8c22.4 0 34.4 12.8 34.4 36v30.4c0 4-4 8-8 8zM360 392H240c-4 0-8-3.2-8-8s3.2-8 8-8h120c4 0 8 3.2 8 8s-3.2 8-8 8z" fill="#FFFFFF" p-id="6651"></path><path d="M796 744c-4 0-7.2-3.2-8-7.2l-16-176c0-4.8 3.2-8 7.2-8.8 4-0.8 8 3.2 8.8 7.2l16 176c0 4.8-3.2 8-8 8.8zM480 112c-17.6 0-32-14.4-32-32s14.4-32 32-32 32 14.4 32 32-14.4 32-32 32z m0-48c-8.8 0-16 7.2-16 16s7.2 16 16 16 16-7.2 16-16-7.2-16-16-16zM944 512c-17.6 0-32-14.4-32-32s14.4-32 32-32 32 14.4 32 32-14.4 32-32 32z m0-48c-8.8 0-16 7.2-16 16s7.2 16 16 16 16-7.2 16-16-7.2-16-16-16z" fill="#FFFFFF" opacity=".5" p-id="6652"></path><path d="M976 872H40c-4.8 0-8-3.2-8-8s4-8 8-8h936c4.8 0 8 3.2 8 8s-4 8-8 8z" fill="#233E49" p-id="6653"></path><path d="M424 648m-24 0a24 24 0 1 0 48 0 24 24 0 1 0-48 0Z" fill="#FFFFFF" p-id="6654"></path><path d="M424 680c-17.6 0-32-14.4-32-32s14.4-32 32-32 32 14.4 32 32-14.4 32-32 32z m0-47.2c-8.8 0-15.2 7.2-15.2 15.2s7.2 15.2 15.2 15.2c8.8 0 15.2-7.2 15.2-15.2s-6.4-15.2-15.2-15.2z" fill="#233E49" p-id="6655"></path><path d="M504 648m-24 0a24 24 0 1 0 48 0 24 24 0 1 0-48 0Z" fill="#FFFFFF" p-id="6656"></path><path d="M504 680c-17.6 0-32-14.4-32-32s14.4-32 32-32 32 14.4 32 32-14.4 32-32 32z m0-47.2c-8.8 0-15.2 7.2-15.2 15.2s7.2 15.2 15.2 15.2c8.8 0 15.2-7.2 15.2-15.2s-6.4-15.2-15.2-15.2z" fill="#233E49" p-id="6657"></path><path d="M584 648m-24 0a24 24 0 1 0 48 0 24 24 0 1 0-48 0Z" fill="#FFFFFF" p-id="6658"></path><path d="M584 680c-17.6 0-32-14.4-32-32s14.4-32 32-32 32 14.4 32 32-14.4 32-32 32z m0-47.2c-8.8 0-15.2 7.2-15.2 15.2s7.2 15.2 15.2 15.2c8.8 0 15.2-7.2 15.2-15.2s-6.4-15.2-15.2-15.2z" fill="#233E49" p-id="6659"></path><path d="M664 648m-24 0a24 24 0 1 0 48 0 24 24 0 1 0-48 0Z" fill="#FFFFFF" p-id="6660"></path><path d="M664 680c-17.6 0-32-14.4-32-32s14.4-32 32-32 32 14.4 32 32-14.4 32-32 32z m0-47.2c-8.8 0-15.2 7.2-15.2 15.2s7.2 15.2 15.2 15.2c8.8 0 15.2-7.2 15.2-15.2s-6.4-15.2-15.2-15.2z" fill="#233E49" p-id="6661"></path></svg>